<svg width="62" height="18" viewBox="0 0 62 18" fill="none" xmlns="http://www.w3.org/2000/svg">
<g clip-path="url(#clip0_128_1626)">
<path d="M13.6187 6.54944H14.2453L16.6407 1.61475V1.61734L16.744 1.4029V6.54944H18.3915V0H15.6103L13.5505 4.49116L13.5173 4.58848L12.5846 2.6637L11.285 0.0938709H11.2812L11.2328 0H8.50472V6.26868L5.62115 0H3.04661L0 6.54944H1.81052L2.53189 5.14568H6.0335L6.75392 6.54944H10.2555V1.40376L12.7267 6.5503H13.6178L13.6187 6.54944ZM3.14898 3.74278L4.28175 1.12301L5.41451 3.74278H3.14898Z" fill="#6F5A8A"/>
<path d="M25.498 5.24041H21.4816V3.92966H25.3946V2.61977H21.4816V1.40376H25.498V0H19.7308V6.64331H25.498V5.24041Z" fill="#6F5A8A"/>
<path d="M28.3816 4.21041H30.2357C30.7211 4.21041 31.014 4.21213 31.1685 4.30256C31.2756 4.3439 31.3742 4.40246 31.4718 4.4903C31.7808 4.86493 31.7808 5.42643 31.7808 5.80019V6.54944H33.325V5.23955C33.325 5.18271 33.3231 5.13018 33.3212 5.0785C33.3212 5.07592 33.3212 5.07334 33.3212 5.07075C33.3212 5.06559 33.3203 5.06128 33.3203 5.05611C33.3203 5.0475 33.3193 5.03889 33.3184 5.02942C33.3108 4.517 33.1506 4.16735 32.9534 3.93224C32.925 3.89607 32.8918 3.85904 32.8529 3.82115C32.8501 3.81943 32.8463 3.8177 32.8435 3.81512C32.5354 3.52404 32.1913 3.46117 32.1913 3.46117C32.6975 3.27687 33.4008 2.73087 33.4245 1.73446C33.4132 1.01105 33.1079 0.554614 32.6036 0.27989C32.0889 0 31.4709 0 30.5448 0H26.6308V6.54944H28.3816V4.21041ZM28.3807 1.40376H30.4405C30.7495 1.40376 31.0585 1.40376 31.2652 1.49677C31.396 1.55619 31.5268 1.65523 31.578 1.81541H31.5789C31.5808 1.82316 31.5808 1.82919 31.5827 1.83694C31.5894 1.86364 31.596 1.89206 31.5979 1.9222C31.6557 2.25204 31.5486 2.49404 31.4557 2.62752C31.433 2.66542 31.4055 2.699 31.3751 2.72742C31.3609 2.74206 31.3505 2.75154 31.3505 2.7524C31.3239 2.77307 31.2965 2.79288 31.2652 2.80665C31.0585 2.90053 30.7495 2.90053 30.4405 2.90053H28.3807V1.4029V1.40376Z" fill="#6F5A8A"/>
<path d="M30.2357 11.2285H24.7776L22.6144 13.3807L22.5623 13.4297L22.1775 13.0491L20.3489 11.2294H13.6547V17.7788H20.2456L22.5111 15.6267L22.6078 15.7274L22.6144 15.7205L24.5842 17.7788H27.9692V15.3459H30.0291C31.5732 15.3459 33.015 14.9713 33.015 13.0999C33.015 12.8553 32.9837 12.6392 32.9297 12.4454C32.4804 11.4662 31.2936 11.2285 30.2348 11.2285H30.2357ZM19.4219 16.4689H15.1989V15.0652H19.0095V13.7553H15.1989V12.5384H19.5242L21.3774 14.5037L19.4209 16.4689H19.4219ZM26.2194 17.2164L23.5415 14.5037L26.2194 11.8839V17.2173V17.2164ZM30.2357 14.2221H27.9702V12.5375H30.1324C30.7504 12.5375 31.1628 12.8183 31.2661 13.3798C31.2661 13.9413 30.8538 14.2212 30.2357 14.2212V14.2221Z" fill="#6F5A8A"/>
<path d="M40.5339 6.64331H42.4904L43.1084 5.14654H46.7134L47.3314 6.5503H49.0822V6.5546H50.8216V5.69857L50.8321 5.70804V1.59064L54.128 6.5503H56.3935V0.093871H54.6417V4.67805L51.6558 0.093871H49.0813V6.36256L46.1986 0.093871H43.6241L41.2552 5.23955H40.5348C40.0201 5.23955 39.6087 5.14568 39.2987 4.86493C38.8873 4.4903 38.784 4.02267 38.784 3.27429C38.784 2.61977 38.9897 2.05827 39.2987 1.77752C39.7111 1.49591 40.0201 1.4029 40.6381 1.4029H42.2866V0H40.6381C39.5054 0 38.5783 0.186881 38.0636 0.748384C37.3432 1.49677 37.1365 2.43289 37.1365 3.36816C37.1365 4.58418 37.4456 5.33256 38.0636 5.89406C38.6816 6.45557 39.712 6.64245 40.5348 6.64245L40.5339 6.64331ZM44.9625 1.12301L46.0953 3.74278H43.7265L44.9625 1.12301Z" fill="#6F5A8A"/>
<path d="M40.6372 12.9131C40.6372 12.1648 40.2258 11.6971 39.7111 11.4155C39.1954 11.1348 38.474 11.1348 37.6512 11.1348H33.7382V17.7781H35.489V15.3452H37.3422C37.9593 15.3452 38.3726 15.3452 38.5773 15.6251C38.8864 15.9058 38.8864 16.5603 38.8864 16.9358V17.7781H40.6372V16.4682C40.6372 15.9067 40.5338 15.5312 40.3281 15.2513C40.2248 15.0644 39.9168 14.8767 39.4011 14.6898C39.9158 14.5021 40.6372 13.9406 40.6372 12.9123V12.9131ZM38.784 13.3808C38.784 13.6607 38.6807 13.9423 38.475 14.0353C38.2693 14.1292 37.9602 14.1292 37.6512 14.1292H35.5914V12.6315H37.6512C37.9593 12.6315 38.2693 12.6315 38.475 12.7254C38.6807 12.8193 38.8873 13.0062 38.784 13.3808Z" fill="#6F5A8A"/>
<path d="M41.6676 17.7781H47.4347V16.3743H43.4175V15.0644H47.3314V13.7545H43.4175V12.5377H47.4347V11.1348H41.6676V17.7781Z" fill="#6F5A8A"/>
<path d="M59.7624 13.9045C59.4505 13.8055 59.1102 13.7547 58.6609 13.7547H57.7339C57.5282 13.7547 57.3215 13.7547 57.1158 13.6608C56.8068 13.5678 56.7035 13.4739 56.7035 13.1932C56.7035 13.0063 56.8068 12.8185 56.9101 12.7255C57.1158 12.6317 57.3215 12.6317 57.6305 12.6317H60.8231V11.041H57.4239C57.2324 11.041 57.058 11.0539 56.8931 11.0755C55.5119 11.314 54.9517 12.1175 54.9517 13.0063C54.9517 15.0645 56.9092 14.9707 58.5567 15.0645C58.8657 15.0645 59.0714 15.1584 59.1747 15.2514C59.2771 15.3453 59.3804 15.5313 59.3804 15.7191C59.3804 15.9068 59.2771 16.0928 59.1747 16.1867C58.969 16.3744 58.7624 16.3744 58.4533 16.3744H55.1584V17.7782H58.4533C59.4837 17.7782 60.2051 17.4974 60.6165 17.1228C61.0279 16.7491 61.2345 16.2814 61.2345 15.7199C61.2345 15.5985 61.2213 15.4891 61.2023 15.3841C60.9909 14.3825 60.0468 13.9984 59.7615 13.9045H59.7624Z" fill="#6F5A8A"/>
<path d="M51.9657 13.7547H51.0387C50.833 13.7547 50.6273 13.7547 50.4206 13.6608C50.2149 13.5678 50.0092 13.4739 50.0092 13.1932C50.0092 13.0063 50.0092 12.8185 50.2149 12.7255C50.4206 12.6317 50.6273 12.6317 50.9363 12.6317H54.1289V11.041H50.7306C48.8765 11.041 48.2584 12.0702 48.2584 13.0063C48.2584 15.0645 50.2149 14.9707 51.8634 15.0645C52.1724 15.0645 52.3781 15.1584 52.4814 15.2514C52.5847 15.3453 52.6871 15.5313 52.6871 15.7191C52.6871 15.9068 52.5847 16.0928 52.4814 16.1867C52.2748 16.3744 52.0681 16.3744 51.76 16.3744H48.4641V17.7782H51.76C53.5108 17.7782 54.4379 17.1228 54.4379 15.7199C54.4379 15.0654 54.2322 14.5969 53.9232 14.3162C53.5108 13.9415 52.8937 13.7547 51.9667 13.7547H51.9657Z" fill="#6F5A8A"/>
<path d="M36.3118 0H34.561V6.54944H36.3118V0Z" fill="#6F5A8A"/>
</g>
<defs>
<clipPath id="clip0_128_1626">
<rect width="61.2346" height="17.7778" fill="white"/>
</clipPath>
</defs>
</svg>
