<svg width="30" height="18" viewBox="0 0 30 18" fill="none" xmlns="http://www.w3.org/2000/svg">
<g clip-path="url(#clip0_128_1612)">
<path d="M0 0H0.330993V9.36812H0V0ZM0.661986 0H0.992979V9.36812H0.661986V0ZM2.6493 0H2.9803V9.36812H2.6493V0ZM9.09217 0H9.42316V9.36812H9.09217V0ZM11.2461 0H11.5771V9.36812H11.2461V0ZM13.3346 0H13.6656V9.36812H13.3346V0ZM13.8729 0H14.2039V9.36812H13.8729V0ZM14.4119 0H14.7428V9.36812H14.4119V0ZM15.0176 0H15.3486V9.36812H15.0176V0ZM15.6234 0H15.9544V9.36812H15.6234V0ZM17.3072 0H17.6382V9.36812H17.3072V0ZM21.4823 0H21.8132V9.36812H21.4823V0ZM25.8372 0H26.1682V9.36812H25.8372V0ZM27.0282 0H27.3592V9.36812H27.0282V0ZM27.8891 0H28.2201V9.36812H27.8891V0ZM28.4191 0H28.75V9.36812H28.4191V0ZM4.83492 0H5.16592V9.36812H4.83492V0ZM1.52284 0H2.11876V9.36812H1.52284V0ZM5.45612 0H6.05204V9.36812H5.45612V0ZM8.21794 0H8.81387V9.36812H8.21794V0ZM9.63177 0H10.2277V9.36812H9.63177V0ZM11.8539 0H12.4498V9.36812H11.8539V0ZM18.1891 0H19.116V9.36812H18.1891V0ZM19.4 0H20.1287V9.36812H19.4V0ZM20.6776 0H21.2735V9.36812H20.6776V0ZM22.367 0H23.3607V9.36812H22.367V0ZM24.3129 0H25.3065V9.36812H24.3129V0ZM3.31129 0H4.50314V9.36812H3.31129V0ZM6.4006 0H7.32751V9.36812H6.4006V0Z" fill="#6F5A8A"/>
<path d="M0.42865 17.6871V12.3251H2.31625C2.63161 12.3122 2.94628 12.3674 3.24101 12.4877C3.46696 12.5906 3.65756 12.7657 3.7864 12.9888C3.91399 13.2 3.98255 13.4455 3.98391 13.6968C3.98391 13.9258 3.92328 14.1501 3.80895 14.3439C3.68022 14.5576 3.49688 14.7276 3.28045 14.8339C3.55818 14.9098 3.80498 15.0806 3.98323 15.32C4.14821 15.5536 4.23456 15.8397 4.22844 16.1321C4.23037 16.3748 4.17938 16.6145 4.07943 16.8326C3.9949 17.0281 3.86799 17.1994 3.70912 17.3323C3.54368 17.4586 3.35648 17.5487 3.15818 17.5974C2.89234 17.6625 2.61994 17.6927 2.34719 17.6873H0.42865V17.6871ZM1.09483 14.5784H2.18265C2.39512 14.5873 2.60781 14.5664 2.81518 14.5162C2.96691 14.4751 3.10141 14.3813 3.1975 14.2495C3.28691 14.1124 3.33201 13.9481 3.32611 13.7813C3.32917 13.6157 3.28747 13.4526 3.206 13.3117C3.12815 13.1779 3.00725 13.0788 2.86583 13.033C2.61506 12.9715 2.35761 12.9463 2.1005 12.9581H1.09483V14.5784ZM1.09483 17.0549H2.34707C2.49857 17.0592 2.65008 17.0507 2.80033 17.0294C2.9362 17.0059 3.06662 16.9552 3.1847 16.8797C3.29257 16.8054 3.38005 16.702 3.43841 16.58C3.50651 16.4414 3.54073 16.287 3.53824 16.1305C3.543 15.9439 3.49257 15.7606 3.39422 15.6062C3.29722 15.458 3.15648 15.3485 2.99433 15.2953C2.75467 15.2262 2.50662 15.1959 2.25857 15.2054H1.09483V17.0549ZM5.20102 15.0758C5.15898 14.3118 5.40046 13.5608 5.87355 12.9851C6.32443 12.4803 6.9565 12.2055 7.60999 12.23C8.05124 12.2235 8.48557 12.3463 8.86574 12.5851C9.23538 12.818 9.53192 13.1624 9.71821 13.5746C9.91901 14.0236 10.0194 14.5163 10.0112 15.0136C10.0195 15.5193 9.91368 16.0198 9.70269 16.4728C9.51141 16.8852 9.20603 17.2251 8.82778 17.4466C8.45384 17.6664 8.03333 17.7804 7.60636 17.7777C7.15956 17.7856 6.71967 17.6592 6.33723 17.4129C5.96919 17.1751 5.67434 16.8277 5.48907 16.4137C5.29814 15.9971 5.19955 15.5394 5.20091 15.0758H5.20102ZM5.8876 15.087C5.85904 15.645 6.03548 16.1929 6.3795 16.6144C6.6935 16.981 7.14098 17.1845 7.60647 17.1725C8.07492 17.1851 8.52512 16.9791 8.83912 16.6084C9.1862 16.161 9.35991 15.5892 9.32467 15.0099C9.33385 14.6177 9.26416 14.2279 9.12014 13.8667C8.99322 13.5553 8.78178 13.2915 8.51299 13.1094C8.24444 12.9294 7.93282 12.836 7.61554 12.8405C7.16149 12.8331 6.72352 13.0195 6.3991 13.3581C6.01508 13.8359 5.83026 14.46 5.88749 15.0862V15.0869L5.8876 15.087ZM11.1027 17.6871V12.3251H11.7682V17.0541H14.2454V17.687H11.1027V17.6871ZM15.3121 17.6871V12.3251H18.9495V12.958H15.9776V14.6H18.7605V15.2292H15.9776V17.054H19.0661V17.6869H15.3121V17.6871ZM21.5257 17.6871V12.9581H19.868V12.3252H23.8553V12.9581H22.1911V17.6871H21.5256H21.5257ZM24.4689 15.0758C24.4272 14.3116 24.6692 13.5606 25.1428 12.9851C25.5936 12.4803 26.2257 12.2055 26.8792 12.23C27.3205 12.2235 27.7548 12.3463 28.135 12.5851C28.5046 12.818 28.8011 13.1624 28.9874 13.5746C29.1883 14.0236 29.2886 14.5163 29.2805 15.0136C29.2887 15.5193 29.1829 16.0198 28.9719 16.4728C28.7801 16.8859 28.4735 17.2262 28.0942 17.4474C27.7202 17.6671 27.2997 17.7811 26.8727 17.7784C26.4256 17.7863 25.9855 17.6596 25.6029 17.4129C25.2357 17.1747 24.9416 16.8275 24.7568 16.4137C24.5659 15.9971 24.4673 15.5394 24.4687 15.0758H24.4689ZM25.1555 15.087C25.1269 15.645 25.3033 16.1929 25.6474 16.6144C25.9614 16.981 26.4088 17.1845 26.8743 17.1725C27.344 17.1866 27.796 16.9808 28.1112 16.6091C28.4582 16.1617 28.632 15.5899 28.5967 15.0106C28.604 14.6179 28.532 14.2281 28.386 13.8674C28.259 13.556 28.0476 13.2922 27.7788 13.1101C27.5103 12.9301 27.1986 12.8367 26.8814 12.8412C26.4273 12.8338 25.9893 13.0202 25.6649 13.3588C25.2816 13.8366 25.0973 14.4604 25.1548 15.0862L25.1555 15.0869V15.087Z" fill="#6F5A8A"/>
</g>
<defs>
<clipPath id="clip0_128_1612">
<rect width="29.281" height="17.7778" fill="white"/>
</clipPath>
</defs>
</svg>
