<svg width="87" height="18" viewBox="0 0 87 18" fill="none" xmlns="http://www.w3.org/2000/svg">
<path fill-rule="evenodd" clip-rule="evenodd" d="M20.4859 0.760234L24.2088 5.51657C24.2868 5.63353 24.3453 5.76998 24.3453 5.92593C24.3453 6.08187 24.2868 6.21832 24.2088 6.33528L20.4664 11.0916C20.096 11.5595 19.5503 11.8519 18.907 11.8519H10.6815L10.9056 11.5712L10.7009 11.8324L18.9655 1.59844C19.102 1.423 19.1799 1.22807 19.1799 0.994152C19.1799 0.448343 18.7316 0 18.1858 0H18.9265C19.5503 0 20.1155 0.292398 20.4859 0.760234ZM17.9461 0H18.1468L18.1554 0.0258349C18.5898 0.128646 18.907 0.52485 18.907 0.994152C18.907 1.22807 18.8291 1.4425 18.6926 1.59844L15.3205 5.92593L10.6815 0H17.913H17.9324H17.9461ZM5.4187 16.7842L5.41886 16.7659C5.42281 16.5391 5.50023 16.3318 5.63311 16.1799L9.0247 11.8524L13.6443 17.7783H6.41279L6.39217 17.7781H6.17881L6.16677 17.7472C5.73853 17.6367 5.4187 17.2452 5.4187 16.7842ZM5.41875 5.9259C4.77551 5.9259 4.22974 6.2183 3.85939 6.68614L0.136443 11.4425C0.0584757 11.5594 0 11.6959 0 11.8518C0 12.0078 0.0584757 12.1442 0.136443 12.2612L3.8399 17.0175C4.21025 17.4854 4.77551 17.7778 5.39925 17.7778H6.15944C5.61366 17.7778 5.16535 17.3294 5.16535 16.7836C5.16535 16.5497 5.24332 16.3548 5.37976 16.1793L12.4241 7.45807L13.6443 5.9259H5.41875ZM55.201 5.36074C54.7332 5.36074 54.3629 5.41922 53.973 5.53617C53.3493 5.73111 52.8815 6.06249 52.5306 6.53033C51.9264 7.31005 51.9459 8.24573 51.9459 8.24573V14.7564H53.6806C53.7976 14.7564 53.8756 14.659 53.8756 14.5615V8.38218C53.8756 8.26522 53.8951 7.83637 54.129 7.62194C54.3239 7.44651 54.5773 7.36853 54.8307 7.32955C55.1036 7.29056 55.3764 7.31005 55.5129 7.32955H55.5519C55.6883 7.32955 55.7858 7.25157 55.8442 7.15411L56.7409 5.61415C56.2731 5.43871 55.7663 5.34124 55.201 5.36074ZM48.8662 5.53619C49.2366 5.41923 49.6264 5.36075 50.0942 5.36075C50.6595 5.34125 51.1468 5.43872 51.6536 5.59467L50.7374 7.15412C50.679 7.25159 50.562 7.32956 50.4451 7.32956H50.4061C50.2696 7.31007 49.9967 7.29057 49.7239 7.32956C49.4705 7.36855 49.2171 7.44652 49.0222 7.62196C48.7882 7.83638 48.7688 8.26523 48.7688 8.38219V14.5615C48.7688 14.659 48.6908 14.7565 48.5738 14.7565H46.8391V8.24574C46.8391 8.24574 46.8196 7.31007 47.4238 6.53034C47.7747 6.0625 48.2425 5.73112 48.8662 5.53619ZM34.9294 12.359C34.871 12.281 34.754 12.2225 34.6371 12.2225C34.5786 12.2225 34.5006 12.242 34.4616 12.281C33.8769 12.6319 33.1752 12.8463 32.4345 12.8463C30.2514 12.8463 28.4776 11.0724 28.4776 8.86969C28.4776 6.66696 30.2514 4.91257 32.4345 4.91257C33.1752 4.91257 33.8769 5.10751 34.4616 5.47788C34.5201 5.51686 34.5786 5.53636 34.6566 5.53636C34.7735 5.53636 34.871 5.47788 34.9489 5.3999L35.943 4.11335C34.9684 3.39211 33.7599 2.96326 32.4345 2.96326C29.1598 2.96326 26.5089 5.61433 26.5089 8.88918C26.5089 12.164 29.1598 14.8151 32.4345 14.8151C33.7404 14.8151 34.9489 14.3863 35.943 13.665L34.9294 12.359ZM64.0308 9.08365C63.641 7.93355 62.5494 7.09534 61.2629 7.09534C59.996 7.09534 58.9044 7.93355 58.5146 9.08365H64.0308ZM56.4874 9.99983C56.4874 7.36825 58.6315 5.224 61.2629 5.224C63.9138 5.224 66.0579 7.36825 66.0385 9.99983V10.2143L66.019 10.7601C66.019 10.8575 65.941 10.955 65.824 10.955H58.5146C58.9239 12.0856 59.996 12.8848 61.2629 12.8848C62.1011 12.8848 62.8613 12.5534 63.1147 12.417C63.1731 12.3975 63.2316 12.378 63.2901 12.378C63.3876 12.378 63.5045 12.4365 63.563 12.5144C63.5825 12.5339 64.5571 13.801 64.5571 13.801L64.3816 13.918C63.2706 14.6392 62.4325 14.7757 61.3994 14.7757H61.2629C58.6315 14.7562 56.4874 12.6314 56.4874 9.99983ZM67.3641 14.7958C67.2472 14.7958 67.1692 14.7178 67.1692 14.6008V5.73143C67.1692 5.63397 67.2472 5.5365 67.3641 5.5365H68.904C69.0209 5.5365 69.0989 5.63397 69.0989 5.73143V14.6008C69.0989 14.7178 69.0014 14.7958 68.904 14.7958H67.3641ZM38.1847 9.94177C38.1847 8.34333 39.4712 7.05678 41.0695 7.05678C42.6678 7.05678 43.9543 8.34333 43.9543 9.94177C43.9543 11.5402 42.6678 12.8268 41.0695 12.8268C39.4712 12.8268 38.1847 11.5402 38.1847 9.94177ZM36.2355 9.96126C36.2355 12.6318 38.3991 14.7956 41.0695 14.7956C43.7399 14.7956 45.9035 12.6318 45.9035 9.96126C45.9035 7.2907 43.7399 5.12695 41.0695 5.12695C38.3991 5.12695 36.2355 7.2907 36.2355 9.96126ZM74.8682 7.13486C73.2894 7.13486 72.0029 8.42141 72.0029 10.0004C72.0029 11.5793 73.2894 12.8464 74.8682 12.8464C76.4471 12.8464 77.7336 11.5598 77.7336 10.0004C77.7336 8.42141 76.4471 7.13486 74.8682 7.13486ZM74.8682 14.7762C72.2174 14.7762 70.0732 12.6319 70.0732 9.98087C70.0732 7.3298 72.2174 5.18555 74.8682 5.18555C77.5191 5.18555 79.6633 7.3298 79.6633 9.98087C79.6633 12.6319 77.5191 14.7762 74.8682 14.7762ZM84.0214 8.926C84.4314 9.0276 84.8054 9.12026 85.1015 9.25962C86.1541 9.72746 86.7973 10.7606 86.7973 11.8132C86.7973 12.8659 86.1736 14.7762 83.4837 14.7762H83.4447C82.1777 14.7762 81.2031 14.2304 80.6574 13.821C80.5404 13.7431 80.209 13.4701 80.209 13.4701C80.209 13.4701 81.1447 12.2616 81.1641 12.2421C81.2421 12.1446 81.3396 12.0861 81.4565 12.0861C81.515 12.0861 81.554 12.0861 81.593 12.1056C81.632 12.1251 81.7294 12.2031 81.7489 12.2226C82.6065 12.8854 83.5422 12.9633 84.1464 12.7879C84.6922 12.6124 84.8871 12.2031 84.8676 11.8327C84.8676 11.7158 84.8481 11.6183 84.8091 11.5208C84.7117 11.3064 84.4778 11.0725 84.1464 10.975C83.9556 10.9154 83.7082 10.8539 83.4378 10.7867C82.8242 10.6343 82.0919 10.4524 81.632 10.1953C80.8133 9.72746 80.2675 8.96722 80.2675 7.91459C80.2675 7.21284 80.6574 5.24403 83.4447 5.18555H83.5617C84.7687 5.18555 85.6218 5.64553 85.9527 5.8239L85.9981 5.84831C86.1346 5.92629 86.271 6.00426 86.3685 6.08223L86.5244 6.21869L85.5498 7.46625C85.4719 7.56371 85.3744 7.62219 85.2574 7.62219C85.199 7.62219 85.1405 7.6027 85.082 7.56371C85.082 7.56371 84.7117 7.34929 84.6142 7.3103C84.1074 7.07639 83.1913 6.88145 82.5091 7.34929C82.2167 7.56371 82.0998 7.95358 82.3142 8.30445C82.4933 8.58803 82.9123 8.67734 83.4051 8.78236C83.5559 8.81451 83.7136 8.84813 83.8735 8.88925L84.0214 8.926Z" fill="#6F5A8A"/>
</svg>
