<svg width="21" height="18" viewBox="0 0 21 18" fill="none" xmlns="http://www.w3.org/2000/svg">
<g clip-path="url(#clip0_128_1637)">
<path d="M10.0938 4.05859V13.6875C11.8974 12.9436 13.178 11.0709 13.1812 8.8727C13.178 6.67517 11.8974 4.8011 10.0938 4.05859Z" fill="#6F5A8A"/>
<path d="M3.56744 8.87333C3.57139 11.0702 4.84996 12.9421 6.6529 13.686V4.05957C4.84996 4.80384 3.57139 6.67685 3.56744 8.87333Z" fill="#6F5A8A"/>
<path d="M12.2527 6.36211e-07H8.35523C3.77225 -0.00176303 0 3.66455 0 8.96614C0 13.8162 3.77225 17.8011 8.35523 17.7778H12.2527C16.7815 17.8011 20.915 13.8152 20.915 8.96614C20.915 3.66349 16.7815 -0.00176303 12.2527 6.36211e-07ZM8.37364 17.0102C4.18583 17.0088 0.792323 13.3672 0.791337 8.87302C0.792323 4.37813 4.18583 0.736156 8.37364 0.734745C12.5624 0.736156 15.9566 4.37813 15.9573 8.87302C15.9566 13.3672 12.5624 17.0088 8.37364 17.0102Z" fill="#6F5A8A"/>
</g>
<defs>
<clipPath id="clip0_128_1637">
<rect width="20.915" height="17.7778" fill="white"/>
</clipPath>
</defs>
</svg>
