<svg width="33" height="18" viewBox="0 0 33 18" fill="none" xmlns="http://www.w3.org/2000/svg">
<path fill-rule="evenodd" clip-rule="evenodd" d="M10.3148 4.06873H10.3146L10.3158 4.06863C11.1171 1.87281 12.9511 -0.0232236 16.1363 0.000215027C19.3228 0.023654 21.4492 1.82229 22.0228 4.18469C22.0126 4.18364 22.0024 4.18259 21.9923 4.18154C26.9714 4.75443 30.6084 5.87704 32.4184 6.55946L32.3836 9.77307V17.7781H0V5.95375C3.64394 4.95641 7.10137 4.36699 10.3148 4.06873ZM22.4511 12.9139C22.5146 12.8571 22.6066 12.8152 22.7248 12.7856C22.8418 12.7572 23.0446 12.7313 23.3295 12.7079C23.8322 12.6672 24.2092 12.6178 24.4618 12.5586V12.7029C24.4618 12.8769 24.4244 13.0076 24.3498 13.0965C24.2515 13.2112 24.0985 13.3025 23.8907 13.3691C23.6829 13.4345 23.4465 13.4678 23.1777 13.4678C22.909 13.4678 22.7037 13.432 22.5643 13.3629C22.425 13.2926 22.354 13.205 22.354 13.1002C22.354 13.0323 22.3864 12.9694 22.4511 12.9139ZM9.78862 10.8563C9.71646 11.0624 9.61443 11.2659 9.48379 11.4682L8.86292 12.407H10.7778L10.188 11.52C10.0089 11.2511 9.87447 11.029 9.78862 10.8551V10.8563ZM15.645 4.06753C10.52 4.06753 5.34148 4.76453 0.248846 6.14126H0.247602V8.72818C5.60277 7.38846 10.7949 6.70996 15.686 6.70996C22.7719 6.70996 27.9753 8.06819 32.1372 9.43259L32.1671 6.7297C29.8715 5.88096 23.9838 4.06753 15.645 4.06753ZM9.28694 7.32431C9.36974 7.31451 9.45132 7.30592 9.53288 7.29735L9.51294 7.29944C9.43783 7.30733 9.36187 7.31531 9.28694 7.32431ZM8.45828 7.423C8.40478 7.4304 8.34879 7.43781 8.29529 7.44397C8.35003 7.43657 8.40478 7.42917 8.45828 7.423ZM7.44797 7.55932C7.49027 7.55346 7.53257 7.5476 7.57488 7.54143C7.49027 7.55253 7.40566 7.56487 7.32105 7.57721C7.36336 7.57104 7.40566 7.56518 7.44797 7.55932ZM3.4291 8.25817C3.34605 8.27538 3.26176 8.29258 3.17747 8.30979L3.4291 8.25817ZM2.22468 8.51477C2.20851 8.51847 2.19109 8.52217 2.17367 8.52587L2.22468 8.51477ZM11.009 12.7523L11.6672 13.7232H12.5195L10.2089 10.5194H9.4039L7.2352 13.7232H8.02902L8.64865 12.7523H11.009ZM16.3106 13.7232H16.9303L16.9315 13.7256V11.4052H16.2385V12.6487C16.2385 12.8473 16.1999 12.9978 16.124 13.1026C16.0481 13.2063 15.9199 13.2889 15.737 13.3494C15.5541 13.4098 15.36 13.4394 15.1522 13.4394C14.9445 13.4394 14.769 13.411 14.6272 13.3518C14.4866 13.2914 14.3945 13.2112 14.3497 13.1076C14.3223 13.036 14.3074 12.8979 14.3074 12.6918V11.4052H13.6144V12.8423C13.6144 13.0101 13.6293 13.1322 13.6567 13.21C13.6977 13.3247 13.7687 13.4209 13.8707 13.5011C13.9715 13.5801 14.127 13.6467 14.336 13.6985C14.5451 13.7503 14.7715 13.7762 15.0116 13.7762C15.5591 13.7762 15.9909 13.6454 16.3106 13.3827V13.7232ZM20.0881 11.7555C20.2573 11.7555 20.4278 11.7839 20.5958 11.8419L20.8346 11.4767C20.592 11.3928 20.3556 11.3496 20.1217 11.3496C19.96 11.3496 19.8119 11.3768 19.6775 11.4286C19.5419 11.4816 19.3951 11.5902 19.2358 11.7543V11.4027H18.6124V13.7232H19.3055V12.508C19.3055 12.3415 19.3441 12.1885 19.4212 12.0491C19.4722 11.9566 19.5581 11.885 19.6788 11.8332C19.8007 11.7814 19.9351 11.7555 20.0881 11.7555ZM19.0765 7.06648C19.0853 7.06648 19.094 7.06648 19.1027 7.06772C19.094 7.06772 19.0853 7.06772 19.0765 7.06648ZM24.5201 13.437C24.54 13.5467 24.5872 13.6417 24.6582 13.7232H25.3798C25.2927 13.6343 25.233 13.5418 25.2044 13.4444C25.1745 13.3481 25.1596 13.1174 25.1596 12.7511V12.2268C25.1596 12.0516 25.1484 11.9307 25.126 11.8641C25.0837 11.7555 25.0128 11.6667 24.9107 11.5964C24.8062 11.5248 24.6457 11.4668 24.428 11.42C24.209 11.3731 23.929 11.3496 23.5769 11.3496C23.2248 11.3496 22.915 11.378 22.6487 11.4323C22.3825 11.4866 22.1772 11.5655 22.0366 11.6667C21.896 11.7678 21.7952 11.9011 21.733 12.0652L22.4098 12.1182C22.4845 11.9541 22.599 11.8394 22.7545 11.774C22.9113 11.7086 23.1514 11.6766 23.4774 11.6766C23.8258 11.6766 24.0896 11.7197 24.2662 11.8098C24.3969 11.8739 24.4628 11.9874 24.4628 12.1478C24.4628 12.1626 24.4616 12.1959 24.4591 12.2502C24.1953 12.3032 23.7822 12.3477 23.2223 12.3859C22.9486 12.4044 22.7433 12.4254 22.6077 12.4451C22.4223 12.4747 22.2568 12.5179 22.1087 12.5746C21.9619 12.6314 21.8425 12.7066 21.7516 12.8004C21.6596 12.8942 21.6148 12.9978 21.6148 13.1125C21.6148 13.3062 21.7367 13.4653 21.9769 13.5899C22.2195 13.7145 22.5641 13.7762 23.0133 13.7762C23.2858 13.7762 23.5408 13.7503 23.7785 13.6997C24.0149 13.6479 24.2625 13.5603 24.5201 13.437ZM23.3169 7.52539C23.3169 7.52539 23.3244 7.52539 23.3281 7.52663C23.3244 7.52663 23.3206 7.52663 23.3169 7.52539ZM24.4865 7.71907C24.4566 7.71291 24.428 7.70797 24.3981 7.70304C24.4131 7.7055 24.4277 7.70828 24.4423 7.71106C24.4569 7.71383 24.4715 7.71661 24.4865 7.71907ZM25.0041 7.81406C24.9754 7.8079 24.9481 7.80296 24.9195 7.79803C24.9437 7.80325 24.9679 7.80759 24.9914 7.81179C24.9956 7.81255 24.9999 7.81331 25.0041 7.81406ZM26.0069 8.01268C26.0069 8.01268 26.0156 8.01391 26.0194 8.01515C26.0156 8.01515 26.0106 8.01391 26.0069 8.01268ZM27.9778 8.46912C27.9666 8.46665 27.9554 8.46295 27.9429 8.46049C27.9485 8.46172 27.9544 8.46326 27.9604 8.4648C27.9663 8.46635 27.9722 8.46789 27.9778 8.46912ZM30.1813 9.0773C30.149 9.06743 30.1166 9.05756 30.083 9.04769C30.0992 9.05262 30.1156 9.05755 30.1321 9.06248C30.1486 9.06742 30.1651 9.07236 30.1813 9.0773ZM31.6598 9.53721C31.6844 9.54541 31.7086 9.55343 31.7329 9.56088C31.7178 9.55591 31.703 9.55114 31.6883 9.54641C31.6787 9.54334 31.6692 9.54029 31.6598 9.53721Z" fill="#6F5A8A"/>
</svg>
