<svg width="75" height="27" viewBox="0 0 75 27" fill="none" xmlns="http://www.w3.org/2000/svg">
<g clip-path="url(#clip0_128_1661)">
<path d="M19.005 3.66246V1.7085C19.005 0.996915 18.0337 0.00146769 17.166 0.00146769H1.52272C0.656953 -0.000476545 -0.156982 0.99497 -0.156982 1.70656V3.66051H19.0031L19.005 3.66246Z" fill="#6F5A8A"/>
<path d="M-0.156982 4.34081V6.38226C-0.156982 13.5448 -0.143545 18.4909 3.97028 22.6555C5.554 24.2595 9.42403 26.89 9.42403 26.89C9.42403 26.89 13.3094 24.2614 14.897 22.6535C19.0185 18.4793 19.005 14.095 19.005 7.33687V4.33887H-0.156982V4.34081Z" fill="#6F5A8A"/>
<mask id="mask0_128_1661" style="mask-type:luminance" maskUnits="userSpaceOnUse" x="4" y="4" width="11" height="20">
<path d="M9.43544 4.14111C6.73832 4.14111 4.21973 6.04646 4.21973 6.04646C4.21973 6.04646 4.3925 10.003 4.3925 11.5914C4.3925 15.023 5.0375 17.8577 6.54443 19.9749C7.39484 21.1726 9.43736 23.1304 9.43736 23.1304C9.43736 23.1304 11.43 21.1726 12.2804 19.9749C13.7873 17.8577 14.3882 15.023 14.3882 11.5914C14.3882 10.0049 14.5955 6.04646 14.5955 6.04646C14.5955 6.04646 12.0039 4.14111 9.43544 4.14111Z" fill="white"/>
</mask>
<g mask="url(#mask0_128_1661)">
<path d="M9.51038 26.705C11.2311 26.705 12.626 25.2923 12.626 23.5495C12.626 21.8068 11.2311 20.394 9.51038 20.394C7.78968 20.394 6.39478 21.8068 6.39478 23.5495C6.39478 25.2923 7.78968 26.705 9.51038 26.705Z" fill="white"/>
<path d="M9.51022 29.0149C6.55971 29.0149 4.16589 26.5924 4.16589 23.6022C4.16589 20.6139 6.55779 18.1895 9.51022 18.1895C12.4627 18.1895 14.8546 20.612 14.8546 23.6022C14.8507 26.5905 12.4607 29.011 9.51022 29.0149ZM9.51022 19.251C7.13753 19.251 5.21211 21.1991 5.21211 23.6041C5.21211 26.0092 7.13561 27.9573 9.51022 27.9573C11.8829 27.9573 13.8083 26.0092 13.8083 23.6041C13.8045 21.2011 11.8829 19.2549 9.51022 19.251Z" fill="white"/>
<path d="M9.51037 31.3321C5.2948 31.3321 1.87781 27.8714 1.87781 23.6018C1.87781 19.3323 5.2948 15.8716 9.51037 15.8716C13.7259 15.8716 17.1429 19.3323 17.1429 23.6018C17.1391 27.8694 13.724 31.3263 9.51037 31.3321ZM9.51037 16.9856C5.90141 16.9856 2.97585 19.9486 2.97585 23.6038C2.97585 27.2589 5.90141 30.222 9.51037 30.222C13.1193 30.222 16.0449 27.2589 16.0449 23.6038C16.0391 19.9506 13.1174 16.9915 9.51037 16.9876V16.9856Z" fill="white"/>
<path d="M9.3606 14.0406C11.1046 14.0406 12.5184 12.6087 12.5184 10.8423C12.5184 9.07595 11.1046 7.64404 9.3606 7.64404C7.61657 7.64404 6.20276 9.07595 6.20276 10.8423C6.20276 12.6087 7.61657 14.0406 9.3606 14.0406Z" fill="white"/>
</g>
<path d="M2.20797 2.64371C2.51861 2.64371 2.77043 2.38867 2.77043 2.07405C2.77043 1.75944 2.51861 1.50439 2.20797 1.50439C1.89733 1.50439 1.64551 1.75944 1.64551 2.07405C1.64551 2.38867 1.89733 2.64371 2.20797 2.64371Z" fill="#6F5A8A"/>
<path d="M4.26986 2.64371C4.5805 2.64371 4.83232 2.38867 4.83232 2.07405C4.83232 1.75944 4.5805 1.50439 4.26986 1.50439C3.95922 1.50439 3.7074 1.75944 3.7074 2.07405C3.7074 2.38867 3.95922 2.64371 4.26986 2.64371Z" fill="#6F5A8A"/>
<path fill-rule="evenodd" clip-rule="evenodd" d="M29.8243 9.35184V11.1794H34.1416C34.0091 12.1885 33.6732 12.9273 33.1626 13.4445C32.5329 14.0822 31.55 14.784 29.8243 14.784C27.1636 14.784 25.0827 12.6123 25.0827 9.91761C25.0827 7.22291 27.1636 5.0512 29.8243 5.0512C31.2602 5.0512 32.3083 5.62281 33.0819 6.35773L34.3566 5.06676C33.2777 4.0227 31.8418 3.22168 29.8262 3.22168C26.1827 3.22168 23.1189 6.22746 23.1189 9.91761C23.1189 13.6078 26.1827 16.6135 29.8262 16.6135C31.7919 16.6135 33.2758 15.9603 34.4372 14.7354C35.6312 13.5261 36.0017 11.8288 36.0017 10.4562C36.0017 10.0479 35.971 9.6707 35.9115 9.35184H29.8243ZM66.242 16.3515V3.714H64.4183V16.3515H66.242ZM40.9986 16.6155C43.3521 16.6155 45.2699 14.7859 45.2699 12.3032C45.2699 9.80287 43.3521 7.99084 40.9986 7.99084C38.6451 7.99084 36.7274 9.82037 36.7274 12.3032C36.7274 14.7859 38.6451 16.6155 40.9986 16.6155ZM40.9986 9.6901C42.2886 9.6901 43.4001 10.7517 43.4001 12.3032C43.4001 13.8371 42.2886 14.9162 40.9986 14.9162C39.7086 14.9162 38.5971 13.8546 38.5971 12.3032C38.5971 10.7517 39.7086 9.6901 40.9986 9.6901ZM50.213 16.6155C52.5665 16.6155 54.4843 14.7859 54.4843 12.3032C54.4843 9.80287 52.5665 7.99084 50.213 7.99084C47.8595 7.99084 45.9418 9.82037 45.9418 12.3032C45.9418 14.7859 47.8595 16.6155 50.213 16.6155ZM50.213 9.6901C51.503 9.6901 52.6145 10.7517 52.6145 12.3032C52.6145 13.8371 51.503 14.9162 50.213 14.9162C48.923 14.9162 47.8115 13.8546 47.8115 12.3032C47.8115 10.7517 48.923 9.6901 50.213 9.6901ZM63.3145 8.25332V15.9933C63.3145 19.178 61.4601 20.4786 59.2678 20.4786C57.2042 20.4786 55.9622 19.0807 55.4938 17.9375L57.1216 17.2512C57.4115 17.9531 58.1218 18.7813 59.2659 18.7813C60.6692 18.7813 61.5388 17.9045 61.5388 16.2538V15.6336H61.4735C61.055 16.1566 60.2488 16.6135 59.2313 16.6135C57.1024 16.6135 55.1521 14.7354 55.1521 12.3187C55.1521 9.90202 57.1024 7.99084 59.2313 7.99084C60.2468 7.99084 61.0531 8.44774 61.4735 8.95518H61.5388V8.25332H63.3145ZM61.6712 12.3187C61.6712 10.8003 60.6711 9.6901 59.3983 9.6901C58.1256 9.6901 57.0276 10.8003 57.0276 12.3187C57.0276 13.8372 58.1083 14.9162 59.3983 14.9162C60.6884 14.9162 61.6712 13.8216 61.6712 12.3187ZM73.3486 13.7223L74.7999 14.7022C74.3315 15.4041 73.2027 16.6134 71.2523 16.6134C68.8336 16.6134 67.0272 14.7197 67.0272 12.3011C67.0272 9.73665 68.8489 7.98878 71.0431 7.98878C73.2373 7.98878 74.3334 9.7697 74.6866 10.7321L74.8805 11.222L69.1887 13.6096C69.6245 14.4747 70.3021 14.9161 71.2523 14.9161C72.2026 14.9161 72.8649 14.4417 73.3486 13.7223ZM68.8816 12.1708L72.6863 10.5707C72.4771 10.0322 71.8475 9.65694 71.1065 9.65694C70.1562 9.65694 68.8336 10.5066 68.8816 12.1708Z" fill="#6F5A8A"/>
</g>
<defs>
<clipPath id="clip0_128_1661">
<rect width="75" height="27" fill="white"/>
</clipPath>
</defs>
</svg>
