<svg width="81" height="18" viewBox="0 0 81 18" fill="none" xmlns="http://www.w3.org/2000/svg">
<g clip-path="url(#clip0_128_1643)">
<path d="M45.2099 5.42556C45.3641 5.46785 45.5034 5.5024 45.5197 5.5024C45.5361 5.5024 45.5494 5.45421 45.5494 5.3951C45.5494 5.33599 45.605 5.03636 45.6734 4.72945C45.7418 4.42255 45.7973 4.15838 45.7973 4.14247C45.7973 4.12656 45.6357 4.06881 45.4379 4.01334C45.2402 3.95833 44.9671 3.90058 44.8308 3.88512L44.5829 3.85693L44.2608 3.90922C44.0838 3.93787 43.8202 4.00152 43.6754 4.05017C43.5307 4.09882 43.2913 4.20976 43.1441 4.29615C42.9969 4.38254 42.7674 4.55122 42.6346 4.6708C42.5018 4.79038 42.2782 5.03136 42.138 5.20641C41.9977 5.38146 41.851 5.5656 41.8118 5.61562L41.7409 5.70655L41.7841 5.52468C41.8079 5.42465 41.8738 5.09729 41.9308 4.7972C41.9878 4.49712 42.0463 4.21567 42.0606 4.17202L42.0869 4.09246H40.197V4.20203C40.197 4.2625 40.141 4.62533 40.0731 5.00908C40.0047 5.39282 39.8927 6.03392 39.8233 6.43403C39.7539 6.83414 39.631 7.5298 39.5502 7.97992C39.4694 8.43005 39.3465 9.07478 39.2771 9.41215C39.2077 9.74952 39.0848 10.3429 39.004 10.7307C38.9232 11.1185 38.7884 11.7524 38.7051 12.1402C38.6219 12.528 38.5218 12.9854 38.4831 13.1573C38.4444 13.3292 38.4127 13.4879 38.4127 13.5097V13.5497H39.4709H40.5291L40.5608 13.1391C40.5782 12.9131 40.6381 12.458 40.6937 12.1275C40.7492 11.7969 40.8637 11.1376 40.9469 10.6625C41.0307 10.1874 41.1863 9.39669 41.2924 8.90519C41.399 8.41368 41.5189 7.92536 41.5595 7.81942C41.6002 7.71394 41.6334 7.59936 41.6334 7.56526C41.6334 7.53116 41.7132 7.34429 41.8103 7.1506C41.9075 6.95691 42.0889 6.65955 42.2133 6.49086L42.4393 6.1835L42.7416 5.92661L43.044 5.66972L43.4167 5.50649L43.7894 5.34327L44.3594 5.34599L44.9294 5.34872L45.2094 5.42556H45.2099Z" fill="#6F5A8A"/>
<path d="M37.9622 5.34434L37.8323 5.13883C37.7609 5.02562 37.635 4.86193 37.5528 4.77464C37.4705 4.68734 37.3233 4.56458 37.2261 4.50138C37.129 4.43818 36.9377 4.33224 36.8014 4.26585L36.5535 4.14491L36.1204 4.04897L35.6872 3.95304L35.1539 3.90621L34.6205 3.85938L34.1249 3.88893L33.6293 3.91848L33.0345 4.02306L32.4397 4.12763L32.068 4.26404C31.8638 4.33906 31.5515 4.47591 31.3741 4.56776C31.1967 4.66006 30.9513 4.8101 30.8289 4.90103C30.7065 4.99242 30.4938 5.16929 30.357 5.29478C30.2203 5.42027 30.0175 5.64579 29.907 5.79583C29.7965 5.94588 29.627 6.21186 29.5303 6.38691C29.4337 6.56196 29.3078 6.80749 29.2503 6.93252C29.1928 7.05756 29.0887 7.31354 29.0188 7.50086C28.9489 7.68819 28.8389 8.04647 28.7745 8.29655C28.71 8.54662 28.6218 8.9581 28.5782 9.21135L28.4994 9.67148V10.348L28.5009 11.0246L28.5762 11.3201C28.6178 11.4829 28.6967 11.728 28.7522 11.8657C28.8077 12.0035 28.9098 12.2081 28.9797 12.3204C29.0496 12.4327 29.1987 12.6141 29.3108 12.7233C29.4228 12.8324 29.6265 12.9974 29.7628 13.0906C29.8991 13.1838 30.1419 13.3148 30.302 13.3816L30.5935 13.5035L30.9999 13.5935C31.2234 13.6431 31.5605 13.7017 31.7493 13.724C31.9381 13.7463 32.3376 13.7667 32.6375 13.7699L33.1827 13.7758L33.7279 13.7304C34.0278 13.7054 34.5184 13.6531 34.8183 13.6144C35.1182 13.5758 35.6361 13.4889 35.9697 13.4216L36.5759 13.2993L36.6061 13.0943C36.6224 12.9815 36.6908 12.646 36.7573 12.3486L36.8782 11.808L36.8514 11.7834L36.8247 11.7589L36.6393 11.8407C36.5372 11.8857 36.22 11.9935 35.934 12.0799L35.4141 12.2372L34.8684 12.3341L34.3227 12.4309L33.4553 12.4323L32.5879 12.4336L32.2905 12.3463C32.127 12.2986 31.8866 12.2108 31.7557 12.1517L31.5183 12.044L31.3226 11.8817L31.1268 11.7193L30.9741 11.4743L30.8215 11.2292L30.7258 10.9218L30.6301 10.6145V10.0461L30.6287 9.47779L30.7139 8.97083L30.7992 8.46387L31.5451 8.43204L32.291 8.40021L35.0483 8.41658L37.8055 8.43295L37.8888 8.10922C37.9344 7.93099 38.0048 7.5627 38.0444 7.29081L38.1168 6.79612L38.1183 6.38009L38.1198 5.96406L38.0415 5.65352L37.9631 5.34298L37.9622 5.34434ZM36.1189 6.92252L36.0663 7.36583H33.5713C32.1993 7.36583 31.0762 7.35673 31.0762 7.34582C31.0762 7.33491 31.1347 7.17623 31.2061 6.99345C31.2775 6.81067 31.4033 6.53877 31.4851 6.38873L31.6343 6.11638L31.9624 5.8172L32.2905 5.51803L32.6127 5.37662C32.7901 5.29888 33.0241 5.21431 33.1331 5.18839C33.2422 5.16247 33.5544 5.12837 33.827 5.11246L34.3227 5.08336L34.7033 5.12837L35.084 5.17338L35.3605 5.28933L35.6371 5.40527L35.7888 5.55531C35.872 5.63806 35.9717 5.75946 36.0098 5.82539L36.0792 5.94542L36.1248 6.21186L36.1704 6.4783L36.1179 6.92161L36.1189 6.92252Z" fill="#6F5A8A"/>
<path d="M17.2235 4.98426C17.3207 4.53686 17.4119 4.15266 17.4267 4.13083L17.4535 4.09082L16.3755 4.1031L15.2975 4.11537L15.2078 4.70645C15.1582 5.03154 15.0506 5.67627 14.9679 6.13867C14.8851 6.60108 14.7602 7.30719 14.6903 7.7073C14.6204 8.10742 14.498 8.75169 14.4187 9.13953C14.3394 9.52691 14.218 10.1207 14.1486 10.4581C14.0792 10.7955 13.9553 11.3888 13.8725 11.7766C13.7897 12.1645 13.6792 12.676 13.6262 12.9133C13.5731 13.1507 13.5166 13.3912 13.4998 13.4476L13.4695 13.5499H15.6018L15.632 13.478C15.6484 13.4385 15.6623 13.3348 15.6623 13.2475C15.6623 13.1602 15.7292 12.7069 15.8114 12.2395C15.8932 11.7725 16.0285 11.0119 16.1123 10.549C16.1961 10.0866 16.319 9.41142 16.3864 9.04859C16.4538 8.68622 16.5732 8.08241 16.6521 7.7073C16.7309 7.3322 16.8523 6.74885 16.9212 6.41148C16.9906 6.07411 17.1264 5.43166 17.2235 4.98426Z" fill="#6F5A8A"/>
<path d="M15.916 2.28095L16.1237 2.36734L16.3314 2.45418L16.6322 2.45509L16.9331 2.456L17.1725 2.38143L17.4119 2.30641L17.6235 2.10954L17.8352 1.91266L17.9467 1.64986L18.0582 1.38752L18.0622 1.00104L18.0661 0.614568L17.967 0.463616L17.8679 0.312664L17.6954 0.214909L17.5229 0.116699H17.1502H16.7775L16.5237 0.22082L16.2699 0.32494L16.1227 0.469981L15.9755 0.614568L15.86 0.864639L15.7441 1.11471L15.7222 1.50437L15.7004 1.89357L15.808 2.08726L15.916 2.28095Z" fill="#6F5A8A"/>
<path d="M27.9001 6.52468L27.7965 6.11547L27.6929 5.70626L27.5254 5.39981L27.3579 5.09336L27.0347 4.77873L26.7116 4.46409L26.3289 4.28268L25.9463 4.10126L25.525 4.00851L25.1037 3.91575L24.6824 3.88756L24.2611 3.85938L23.7918 3.90893L23.3224 3.95849L22.9393 4.04807L22.5561 4.13764L22.2236 4.27904C22.0407 4.35679 21.774 4.48864 21.6318 4.5723C21.4895 4.65597 21.3423 4.7519 21.3051 4.786C21.268 4.8201 21.1792 4.88285 21.1074 4.92559L20.977 5.00379L21.0682 4.60459C21.1183 4.38498 21.1599 4.17947 21.1614 4.14855L21.1634 4.09171H19.3459L19.1868 5.01243C19.099 5.51894 18.9608 6.30143 18.8795 6.75156C18.7982 7.20169 18.6753 7.87688 18.6064 8.25199C18.5375 8.62709 18.4151 9.29228 18.3343 9.72968C18.253 10.1671 18.1192 10.8627 18.0364 11.2756C17.9536 11.6884 17.8327 12.2918 17.7673 12.6169C17.7018 12.942 17.5789 13.5558 17.4937 13.9809C17.4084 14.406 17.2721 15.0812 17.1898 15.4813C17.1076 15.8814 16.9747 16.5157 16.8934 16.8908C16.8122 17.2659 16.7338 17.6187 16.719 17.6751L16.6917 17.7774H18.823L18.8532 17.7056C18.8696 17.666 18.8834 17.5728 18.8834 17.4987C18.8834 17.4246 18.9186 17.155 18.9612 16.8999C19.0044 16.6448 19.105 16.0574 19.1853 15.595C19.2656 15.1326 19.3855 14.4369 19.4524 14.0491C19.5193 13.6613 19.6001 13.1652 19.6328 12.9465C19.6656 12.7278 19.7057 12.5487 19.7216 12.5487C19.7374 12.5487 19.8063 12.6455 19.8747 12.7637L19.9986 12.9788L20.2732 13.2329L20.5478 13.4871L20.8858 13.6112L21.2238 13.7354L21.6268 13.7831L22.0298 13.8308L22.5413 13.8022L23.0528 13.7736L23.6069 13.6422L24.161 13.5108L24.4584 13.3862C24.622 13.3175 24.9119 13.1684 25.1027 13.0543L25.4497 12.8469L25.7733 12.5505C25.9513 12.3873 26.2021 12.1258 26.3309 11.9694C26.4598 11.813 26.5649 11.6734 26.5649 11.6593C26.5649 11.6452 26.6283 11.5484 26.7056 11.4438C26.783 11.3392 26.9411 11.0491 27.057 10.7991C27.173 10.549 27.3544 10.0989 27.46 9.79879L27.6523 9.25318L27.7514 8.78077C27.806 8.5207 27.8763 8.09103 27.9076 7.82596L27.9646 7.34355L27.9318 6.93434L27.8991 6.52513L27.9001 6.52468ZM25.7084 7.7523L25.6831 8.61618L25.5557 9.12678C25.4859 9.40777 25.3525 9.83744 25.2594 10.0816L25.0903 10.5258L24.8837 10.8855C24.7702 11.0832 24.5947 11.3506 24.4941 11.4793C24.3935 11.6079 24.2329 11.7753 24.1377 11.8503C24.0426 11.9253 23.8825 12.0431 23.7828 12.1113L23.6014 12.2358L23.1806 12.3672L22.7598 12.4986L22.346 12.5214L21.9321 12.5441L21.6615 12.5005L21.3909 12.4568L21.1163 12.3418L20.8417 12.2268L20.6499 12.0585L20.4581 11.8903L20.3471 11.663C20.2861 11.5379 20.2078 11.3256 20.1731 11.191L20.1101 10.9464L20.1354 10.5545L20.1607 10.1625L20.2886 9.54872C20.359 9.21135 20.4848 8.57662 20.5686 8.13923C20.6524 7.70183 20.7798 7.06028 20.8511 6.71428L20.981 6.08501L21.265 5.86813C21.4211 5.749 21.6689 5.58896 21.8151 5.51303L22.0813 5.37481L22.4283 5.27614L22.7752 5.17748L23.2213 5.15338L23.6674 5.12928L24.0307 5.20021L24.394 5.27114L24.6502 5.37935L24.9065 5.48757L25.1216 5.6858L25.3367 5.88404L25.4527 6.0941C25.5166 6.20959 25.6058 6.43556 25.6519 6.59652L25.7352 6.88887L25.7099 7.75275L25.7084 7.7523Z" fill="#6F5A8A"/>
<path d="M78.8658 0.000454675L78.8346 0.284626C78.8173 0.441034 78.736 0.957545 78.6542 1.43268C78.5724 1.90781 78.4386 2.66485 78.3573 3.11498C78.276 3.5651 78.1972 4.00159 78.1828 4.0848L78.1566 4.2362L78.0728 4.20347C78.0267 4.18528 77.7774 4.12208 77.5182 4.06252L77.0473 3.95385L76.403 3.90793L75.7587 3.86201L75.2135 3.90838L74.6683 3.95521L74.1726 4.07025L73.677 4.18528L73.2061 4.39579L72.7353 4.60631L72.3883 4.84183L72.0414 5.07735L71.7415 5.37198C71.5769 5.53384 71.3385 5.8021 71.2126 5.9676L70.9832 6.2686L70.7135 6.78284C70.5653 7.06564 70.3849 7.4403 70.3131 7.61535C70.2412 7.79039 70.1133 8.17823 70.0301 8.47786L69.8784 9.02211L69.8035 9.72822L69.7287 10.4343L69.7847 11.0027L69.8407 11.571L69.9071 11.7756C69.9438 11.8879 70.0206 12.0884 70.0781 12.2212L70.1827 12.4622L70.3735 12.6991L70.5643 12.9359L70.7824 13.0996L71.0005 13.2633L71.2979 13.3988C71.4615 13.4734 71.736 13.5698 71.9075 13.613C72.079 13.6562 72.3581 13.708 72.5271 13.728C72.6961 13.748 73.046 13.7671 73.3052 13.7703L73.7761 13.7757L74.2222 13.7094C74.4675 13.673 74.7798 13.6139 74.9161 13.5784C75.0524 13.5429 75.2977 13.4511 75.4613 13.3743L75.7587 13.2347L76.0144 13.0282L76.2702 12.8218L76.5398 12.4922C76.688 12.3108 76.8223 12.1321 76.8382 12.0943L76.8669 12.0261L76.8421 12.2535C76.8283 12.3785 76.7975 12.5831 76.7737 12.7082C76.7499 12.8332 76.7152 13.0737 76.6974 13.2424L76.6647 13.5493H78.6091V12.9355L78.7573 11.7761C78.8386 11.1382 78.959 10.2893 79.0249 9.88917C79.0909 9.48906 79.1925 8.91617 79.2504 8.61608C79.3089 8.316 79.412 7.77357 79.4799 7.4112C79.5478 7.04837 79.6703 6.41455 79.7525 6.00171C79.8343 5.58886 79.9657 4.93413 80.0445 4.54675C80.1228 4.15891 80.2447 3.55556 80.3151 3.20546C80.3855 2.85536 80.5119 2.24155 80.5961 1.84143C80.6799 1.44132 80.8028 0.878886 80.8687 0.591077C80.9346 0.303268 80.9887 0.0527423 80.9882 0.0341006V0H78.8668L78.8658 0.000454675ZM77.8949 5.62751C77.88 5.69616 77.821 5.99761 77.764 6.2977C77.707 6.59778 77.595 7.17067 77.5147 7.57079C77.4344 7.9709 77.3115 8.57471 77.2411 8.91208C77.1707 9.24945 77.0686 9.67957 77.0146 9.86689C76.9606 10.0542 76.8838 10.3143 76.8446 10.4443C76.8055 10.5744 76.7118 10.7994 76.6369 10.9445C76.5621 11.0895 76.4307 11.3005 76.345 11.4128C76.2598 11.5251 76.115 11.681 76.0238 11.7592C75.9326 11.8375 75.7354 11.9757 75.5852 12.0671L75.3126 12.2335L74.9186 12.3481L74.5245 12.4626L74.1503 12.4808L73.7761 12.499L73.5233 12.4572C73.3845 12.4344 73.162 12.3726 73.0292 12.3203L72.7878 12.2253L72.5846 12.0725L72.3814 11.9198L72.2302 11.6547L72.079 11.3896L72.0101 11.0941L71.9412 10.7985L71.9472 10.2074L71.9531 9.61637L72.0329 9.09349L72.1127 8.57062L72.2371 8.20688C72.3055 8.00682 72.3615 7.81813 72.362 7.78721C72.3625 7.75675 72.4299 7.59307 72.5117 7.42347C72.5935 7.25388 72.7308 6.9929 72.816 6.84285C72.9013 6.69281 73.0614 6.45911 73.1709 6.32316C73.2805 6.18721 73.4762 5.98261 73.6056 5.86848C73.735 5.75436 73.9407 5.60432 74.0626 5.53566L74.2846 5.41063L74.6742 5.28696L75.0638 5.16329H75.8816L76.6994 5.16283L77.1702 5.28286C77.429 5.34879 77.7041 5.42518 77.7814 5.45291L77.9216 5.50293L77.8944 5.62751H77.8949Z" fill="#6F5A8A"/>
<path d="M13.826 0.603009L13.9098 0.27337H11.4608L11.4276 0.489341C11.4093 0.608011 11.3503 0.940378 11.2963 1.22819C11.2422 1.516 11.1441 2.02751 11.0782 2.36487C11.0123 2.70224 10.8913 3.34697 10.81 3.7971C10.7287 4.24723 10.6247 4.84331 10.5796 5.12111L10.4968 5.62671L8.6996 5.6599L6.9024 5.69309L5.39714 5.66036C4.56893 5.64217 3.88693 5.62398 3.88148 5.61944C3.87602 5.61489 3.90427 5.43847 3.94393 5.2266C3.98407 5.01517 4.05991 4.64734 4.11244 4.41C4.16498 4.17266 4.26461 3.70162 4.334 3.36425C4.40338 3.02688 4.4817 2.60722 4.50846 2.43217C4.53522 2.25712 4.59074 1.96567 4.63237 1.78425C4.674 1.60284 4.75281 1.22091 4.80783 0.935831C4.86284 0.650296 4.92133 0.384311 4.93769 0.344754L4.96792 0.272461H2.53879L2.46097 0.670301C2.41834 0.889 2.36135 1.20091 2.33409 1.36368C2.30732 1.52645 2.21662 2.04797 2.13286 2.5231C2.04909 2.99824 1.92568 3.70435 1.85877 4.09173C1.79136 4.47957 1.66894 5.18522 1.58666 5.66036C1.50438 6.13549 1.36808 6.87206 1.28432 7.29718C1.20056 7.72231 1.07912 8.32566 1.01469 8.63848C0.950257 8.95129 0.827339 9.54419 0.741593 9.95703C0.655847 10.3699 0.530946 10.9528 0.463539 11.2529C0.396627 11.5529 0.322281 11.9008 0.29849 12.0258C0.2747 12.1508 0.198371 12.5114 0.12799 12.8274C0.057609 13.1429 0.000610352 13.4348 0.000610352 13.4753V13.549H1.20502H2.40942L2.49566 13.0602C2.54325 12.7915 2.63593 12.2745 2.70185 11.9121C2.76777 11.5498 2.89069 10.8741 2.97445 10.4117C3.05871 9.9493 3.1846 9.26365 3.25449 8.88855C3.32438 8.51344 3.4354 7.93146 3.50132 7.59545C3.56724 7.25945 3.63366 6.973 3.64902 6.95891L3.67678 6.93345H10.1533L10.1895 6.96664L10.2257 6.99983L10.1697 7.26218C10.1389 7.40676 10.0472 7.85189 9.96645 8.252C9.88566 8.65212 9.74986 9.32731 9.66461 9.75243C9.57936 10.1775 9.45644 10.7809 9.39102 11.0937C9.32559 11.4065 9.19325 12.0613 9.0971 12.5487C9.00095 13.0361 8.92214 13.4608 8.92264 13.4921V13.549H11.3414L11.3949 13.2648C11.4241 13.1084 11.4717 12.8274 11.5 12.6396C11.5282 12.4523 11.5971 12.0531 11.6521 11.753C11.7076 11.4529 11.8182 10.8596 11.898 10.4344C11.9778 10.0093 12.1116 9.28275 12.1949 8.82034C12.2781 8.35794 12.402 7.68229 12.4699 7.31992C12.5378 6.95709 12.6588 6.34328 12.7386 5.95589C12.8184 5.56806 12.9517 4.91378 13.0345 4.50094C13.1172 4.08809 13.2411 3.46428 13.31 3.11418C13.3789 2.76408 13.5043 2.12981 13.5891 1.70469C13.6738 1.27957 13.7804 0.783515 13.8265 0.6021L13.826 0.603009Z" fill="#6F5A8A"/>
<path d="M70.3523 5.42643L70.5961 5.49827L70.6373 5.47508L70.6784 5.45189L70.6804 5.30685C70.6814 5.22683 70.7344 4.92993 70.7984 4.64712L70.9143 4.13243L70.784 4.0856C70.7121 4.05968 70.5421 4.00648 70.4058 3.96738L70.158 3.896L69.7119 3.89691L69.2658 3.89781L68.9025 4.01512L68.5392 4.13243L68.2661 4.28338L67.993 4.43433L67.6382 4.77534L67.2833 5.11634L67.0925 5.38096C66.9874 5.52646 66.8952 5.63876 66.8873 5.63103C66.8793 5.6233 66.9363 5.32004 67.0141 4.95721C67.092 4.59438 67.1564 4.25201 67.1574 4.19563L67.1594 4.09333H65.3255V4.12242C65.3255 4.13834 65.2799 4.42978 65.2239 4.77034C65.1679 5.11089 65.0559 5.76789 64.9746 6.2303C64.8933 6.6927 64.76 7.43973 64.6782 7.88986C64.5964 8.33999 64.4735 8.98471 64.4046 9.32208C64.3357 9.65945 64.2138 10.2533 64.133 10.6406C64.0522 11.0285 63.9199 11.6523 63.8386 12.0274C63.7573 12.4025 63.6497 12.8986 63.5997 13.13L63.5085 13.5506H64.5905H65.6725V12.9431L65.7974 12.1897C65.8658 11.7755 65.9793 11.1194 66.0486 10.7316C66.1185 10.3442 66.2053 9.85269 66.2419 9.64035C66.2786 9.42802 66.3753 8.96744 66.4566 8.61734C66.5383 8.26724 66.6404 7.88895 66.6831 7.77619C66.7262 7.66388 66.7614 7.54567 66.7619 7.51384C66.7624 7.48201 66.8546 7.27787 66.9671 7.06008L67.1713 6.66406L67.4409 6.33578L67.7105 6.0075L68.0054 5.80427C68.1675 5.69242 68.4282 5.54419 68.5848 5.47463L68.8693 5.34823L69.4889 5.35232L70.1084 5.35641L70.3523 5.42825V5.42643Z" fill="#6F5A8A"/>
<path d="M53.4633 4.46312C53.5039 4.25442 53.5272 4.07482 53.5153 4.06391C53.5034 4.053 53.3097 4.02481 53.0851 4.00117C52.8606 3.97752 52.2495 3.93569 51.7276 3.90841L50.7789 3.8584L50.1098 3.90568L49.4407 3.95297L48.945 4.04845L48.4494 4.14393L48.1302 4.26124C47.9547 4.3258 47.6975 4.44175 47.5587 4.5195C47.42 4.59724 47.2435 4.70182 47.1662 4.75183C47.0889 4.80185 46.8549 4.9969 46.6463 5.18559L46.2666 5.52842L46.0545 5.81304C45.938 5.96945 45.7363 6.29636 45.6064 6.53871L45.3705 6.97974L45.1896 7.45715C45.0899 7.7195 44.9512 8.14916 44.8808 8.41197L44.7529 8.88937L44.7063 9.32131L44.6597 9.75326V10.3216L44.6607 10.8899L44.7073 11.2205L44.7539 11.551L44.9026 11.8911L45.0513 12.2312L45.2228 12.4772L45.3943 12.7232L45.6669 12.9692L45.9395 13.2151L46.2279 13.3552L46.5164 13.4952L46.8956 13.5916C47.1037 13.6448 47.4051 13.7057 47.5647 13.7271C47.7243 13.7485 48.1005 13.7685 48.4003 13.7717H48.3993L48.945 13.7771L49.5641 13.7098C49.9046 13.673 50.3581 13.6116 50.5717 13.5734C50.7854 13.5352 51.1308 13.4602 51.34 13.4061C51.5491 13.352 51.738 13.2934 51.7603 13.2761C51.7826 13.2588 51.8416 13.0524 51.8916 12.8173C51.9417 12.5827 52.0046 12.2676 52.0319 12.1176C52.0591 11.9675 52.073 11.8366 52.0631 11.827C52.0532 11.817 52.0165 11.8298 51.9818 11.8552C51.9471 11.8807 51.7038 11.9743 51.4416 12.0639L50.9643 12.2267L50.2848 12.3476L49.6052 12.4686L49.0273 12.4504L48.4494 12.4322L48.1213 12.3276L47.7932 12.223L47.5394 12.0194L47.2856 11.8157L47.1176 11.5347L46.9496 11.2537L46.8693 10.8777L46.789 10.5017V10.0138L46.79 9.52592L46.8871 8.93484L46.9843 8.34376L47.0874 8.02549C47.1439 7.85044 47.2083 7.64584 47.2296 7.57082C47.2514 7.4958 47.3421 7.28073 47.4318 7.09341C47.5216 6.90608 47.6807 6.616 47.7862 6.44913L47.978 6.14587L48.2135 5.92171L48.4489 5.69756L48.6982 5.5557L48.9475 5.41384L49.2682 5.32336C49.4446 5.27335 49.7559 5.20878 49.9606 5.17968L50.3323 5.12649L50.8775 5.15149L51.4227 5.1765L52.0671 5.29472L52.7114 5.41293L52.9736 5.5025C53.1178 5.55161 53.2417 5.59207 53.2497 5.59207C53.2576 5.59207 53.2918 5.42339 53.3265 5.21697C53.3612 5.01054 53.4227 4.67136 53.4633 4.46266V4.46312Z" fill="#6F5A8A"/>
<path d="M62.589 4.76805L62.3986 4.60028L62.2083 4.4325L61.8956 4.287L61.5828 4.14196L61.1169 4.04694L60.651 3.95191L60.0097 3.90735L59.3683 3.86279L58.5421 3.90962C58.0876 3.93554 57.4482 3.98646 57.1211 4.02284L56.5263 4.08922L56.1209 4.09059L55.7154 4.09195L55.6565 4.35339C55.6242 4.49706 55.534 4.83898 55.4562 5.11269C55.3784 5.38641 55.3219 5.61693 55.3308 5.62511C55.3397 5.6333 55.5563 5.58783 55.8126 5.52463C56.0688 5.46143 56.613 5.35731 57.0219 5.29365L57.7654 5.17771L58.4345 5.15225L59.1036 5.12679L59.5348 5.1959L59.966 5.26501L60.2535 5.39505L60.541 5.52508L60.7021 5.74515L60.8632 5.96521L60.8607 6.31258L60.8582 6.65995L60.7729 7.04097L60.6877 7.42199L58.9044 7.4279L57.1211 7.43381L56.5372 7.58067C56.216 7.6616 55.8607 7.76845 55.7472 7.81892C55.6337 7.86939 55.5202 7.91031 55.4949 7.91031C55.4696 7.91031 55.2788 8.00761 55.0706 8.12628L54.6919 8.34225L54.3941 8.61505C54.23 8.7651 54.0208 8.99016 53.9287 9.11519C53.8365 9.24023 53.6873 9.50121 53.5961 9.69581L53.431 10.0491L53.3552 10.446L53.2794 10.843V11.6759L53.3517 12.0228L53.4241 12.3698L53.5584 12.5962C53.6323 12.7208 53.7676 12.9026 53.8593 13.0013L54.0263 13.18L54.3227 13.345L54.6191 13.5101L54.9586 13.5983C55.1454 13.6469 55.4294 13.7056 55.59 13.7288L55.882 13.7711L56.5511 13.7533L57.2202 13.7356L57.6415 13.6365L58.0628 13.5374L58.3354 13.4191C58.4856 13.3541 58.7304 13.2259 58.8806 13.1341C59.0308 13.0422 59.2627 12.8676 59.3966 12.7458C59.5304 12.6244 59.7286 12.4166 59.8372 12.2847C59.9457 12.1529 60.0414 12.051 60.0493 12.0583C60.0572 12.0656 60.0325 12.2761 59.9938 12.5257C59.9551 12.7753 59.9234 13.1077 59.9229 13.2636L59.9219 13.5478H61.7414L61.7692 12.8999L61.7969 12.252L61.9268 11.4108C61.9982 10.9484 62.1137 10.2628 62.183 9.88769C62.2524 9.51258 62.3734 8.87831 62.4517 8.4782C62.53 8.07808 62.6539 7.45381 62.7268 7.09144L62.8601 6.43216L62.8645 5.86291L62.869 5.29365L62.7287 5.0304L62.5885 4.76714L62.589 4.76805ZM60.3854 8.94105C60.3492 9.13747 60.2624 9.49212 60.193 9.72992C60.1237 9.96771 60.0007 10.3169 59.9204 10.506C59.8401 10.6952 59.7742 10.8625 59.7742 10.878C59.7742 10.8934 59.6929 11.0312 59.5933 11.1844L59.4124 11.4631L59.115 11.7332C58.9515 11.8819 58.7998 12.0033 58.778 12.0033C58.7562 12.0033 58.6556 12.0547 58.5555 12.117L58.3726 12.2306L57.9706 12.347L57.5686 12.4634L57.1721 12.4825L56.7756 12.5016L56.5129 12.4402C56.3687 12.4066 56.1491 12.3311 56.0257 12.2729L55.8012 12.167L55.6788 12.0333C55.6113 11.9596 55.5083 11.8155 55.4503 11.7128L55.3442 11.5254L55.3234 11.0885L55.3026 10.6515L55.3868 10.3865C55.4329 10.2405 55.5415 9.98772 55.6277 9.82403L55.7848 9.52668L56.0852 9.25296L56.3855 8.97925L56.7047 8.8383L57.0239 8.69735L57.4204 8.61096L57.8169 8.52457H60.2951L60.3735 8.55413L60.4518 8.58368L60.3858 8.9406L60.3854 8.94105Z" fill="#6F5A8A"/>
</g>
<defs>
<clipPath id="clip0_128_1643">
<rect width="80.9877" height="17.7778" fill="white"/>
</clipPath>
</defs>
</svg>
