<svg width="72" height="19" viewBox="0 0 72 19" fill="none" xmlns="http://www.w3.org/2000/svg">
<path fill-rule="evenodd" clip-rule="evenodd" d="M19.1991 9.43277C19.1991 11.9981 18.1834 14.5004 16.4035 16.1936L16.4043 16.1932C15.9074 16.6612 15.3501 17.0669 14.7423 17.3937V17.3965L14.6736 17.4298C14.0826 17.7385 13.4411 17.9739 12.7547 18.1207L12.6831 18.136L12.6607 18.1415C11.7974 18.3201 11.0268 18.2758 10.3488 17.9518C9.19636 17.3993 8.42152 16.2361 8.35274 14.3072H8.35133V14.2324C8.34712 14.0926 8.34712 13.9472 8.35133 13.799V9.67389C8.35133 9.28616 8.47626 8.9566 8.73314 8.67827C9.24829 8.14238 10.0807 8.14238 10.5944 8.67827C10.8513 8.9566 10.9776 9.28616 10.9776 9.67389V13.7381C10.9976 14.5367 11.134 15.1687 11.3689 15.6525C11.7592 15.8493 12.5011 15.5649 12.9204 15.3871L12.9611 15.3691L12.9737 15.3636L13.0032 15.3497C15.3951 14.2752 16.5812 11.9488 16.5812 9.43138C16.5812 8.875 16.5145 8.33473 16.3886 7.8176C16.4037 7.8915 16.4183 7.9658 16.4324 8.04049C15.9481 5.74738 14.2819 3.76168 11.8647 2.95161C4.91084 0.621116 -0.410557 9.19951 4.59922 14.3022C4.90804 14.5376 5.10596 14.9074 5.10876 15.3214C5.11298 16.0401 4.52483 16.6258 3.79631 16.63C3.36819 16.6327 2.98498 16.4333 2.74214 16.1204C-0.42319 12.9161 -0.622515 8.73701 0.997347 5.43028V5.43166C1.029 5.38474 1.06113 5.33819 1.09374 5.29202C2.58941 2.28836 5.65374 0 9.63714 0C14.9094 0 19.1991 4.23034 19.1991 9.43277ZM9.64564 5.11934C10.384 5.11934 10.9834 5.70924 10.9834 6.43899C10.9834 7.16874 10.3854 7.75725 9.64564 7.75725C8.90589 7.75725 8.30932 7.16736 8.30932 6.43899C8.30932 5.71062 8.9073 5.11934 9.64564 5.11934ZM22.5779 15.0106C22.7926 15.2516 23.1028 15.3706 23.5085 15.3706C23.9268 15.3706 24.244 15.2502 24.4602 15.0106C24.6764 14.7711 24.7845 14.4387 24.7845 14.0122V6.68285C24.7845 5.77724 24.3451 5.32444 23.5085 5.32444C22.6719 5.32444 22.2536 5.77724 22.2536 6.68285V14.0122C22.2536 14.4387 22.3617 14.7711 22.5779 15.0106ZM23.5184 2.45368C24.1473 2.45368 24.6568 2.95634 24.6568 3.5767C24.6568 4.19705 24.1473 4.69971 23.5184 4.69971C22.8895 4.69971 22.38 4.19705 22.38 3.5767C22.38 2.95634 22.8895 2.45368 23.5184 2.45368ZM26.7089 14.1133C26.7089 14.9649 27.1412 15.3914 28.0045 15.3914V15.3928C28.8551 15.3928 29.2805 14.9663 29.2805 14.1147V9.98125C29.2805 8.46359 30.11 7.62444 31.7706 7.4652L32.2156 7.42504C32.9848 7.34473 33.3357 6.95285 33.2684 6.24664C33.201 5.52658 32.8781 5.20117 32.297 5.26763C30.7038 5.40057 29.6651 6.03893 29.1794 7.1841V6.56512C29.1794 5.72598 28.7681 5.30641 27.9441 5.30641C27.1202 5.30641 26.7089 5.72598 26.7089 6.56512V14.1133ZM35.2336 15.3914C34.3704 15.3914 33.938 14.9649 33.938 14.1133V6.56512C33.938 5.72598 34.3493 5.30641 35.1733 5.30641C35.9972 5.30641 36.4085 5.72598 36.4085 6.56512V7.1841C36.8942 6.03893 37.9329 5.40057 39.5261 5.26763C40.1058 5.20117 40.4301 5.52658 40.4975 6.24664C40.5649 6.95285 40.2139 7.34473 39.4447 7.42504L38.9997 7.4652C37.3392 7.62444 36.5096 8.46359 36.5096 9.98125V14.1147C36.5096 14.9663 36.0843 15.3928 35.2336 15.3928V15.3914ZM47.3404 12.7256C46.8814 13.2642 46.2736 13.5342 45.5184 13.5342C44.7632 13.5342 44.1554 13.2642 43.6964 12.7256C43.2374 12.1869 43.0086 11.4045 43.0086 10.3397C43.0086 9.27481 43.2374 8.47997 43.6964 7.95378C44.1554 7.42758 44.7618 7.16448 45.5184 7.16448C46.275 7.16448 46.8814 7.42758 47.3404 7.95378C47.7994 8.47859 48.0282 9.28866 48.0282 10.3397C48.0282 11.3907 47.7994 12.1869 47.3404 12.7256ZM42.8458 14.8123C43.6024 15.225 44.4923 15.4313 45.5184 15.4313C46.5445 15.4313 47.4359 15.225 48.1911 14.8123C48.9477 14.3997 49.5344 13.8112 49.9527 13.0454C50.371 12.2797 50.5802 11.3782 50.5802 10.3397C50.5802 9.30112 50.371 8.40243 49.9527 7.6436C49.5344 6.88477 48.9463 6.29903 48.1911 5.88638C47.4345 5.47373 46.5445 5.26741 45.5184 5.26741C44.4923 5.26741 43.601 5.47373 42.8458 5.88638C42.0892 6.29903 41.5025 6.88477 41.0842 7.6436C40.6659 8.40243 40.4567 9.30112 40.4567 10.3397C40.4567 11.3782 40.6659 12.2797 41.0842 13.0454C41.5025 13.8112 42.0906 14.3997 42.8458 14.8123ZM56.9585 13.5343C57.7151 13.5343 58.3215 13.2643 58.7805 12.7256C59.2395 12.1869 59.4683 11.3907 59.4683 10.3397C59.4683 9.28871 59.2395 8.47864 58.7805 7.95383C58.3215 7.42764 57.7151 7.16454 56.9585 7.16454C56.2019 7.16454 55.5955 7.42764 55.1365 7.95383C54.6775 8.48003 54.4487 9.27486 54.4487 10.3397C54.4487 11.4046 54.6789 12.1869 55.1365 12.7256C55.5955 13.2643 56.2033 13.5343 56.9585 13.5343ZM57.6667 15.4314C56.9384 15.4313 56.2902 15.2748 55.7233 14.9619C55.1562 14.649 54.7309 14.2267 54.4473 13.6935V14.1131C54.4473 14.9647 54.036 15.3912 53.2121 15.3912C52.3881 15.3912 51.9571 14.9647 51.9571 14.1131V2.25152C51.9571 1.41238 52.3755 0.992804 53.2121 0.992804C54.0487 0.992804 54.4866 1.41238 54.4866 2.25152V6.90421C54.7842 6.41124 55.2123 6.01521 55.7724 5.71611C56.3325 5.41701 56.9627 5.26746 57.6646 5.26746C58.5419 5.26746 59.3041 5.47378 59.9526 5.88643C60.5997 6.29908 61.1064 6.88067 61.4714 7.63396C61.8363 8.38587 62.0174 9.28871 62.0174 10.3397C62.0174 11.3907 61.8349 12.2797 61.4714 13.0455C61.1064 13.8112 60.5969 14.3997 59.9428 14.8124C59.2888 15.2249 58.5297 15.4313 57.6667 15.4314ZM68.8323 13.0346C68.3944 13.4874 67.8441 13.7131 67.183 13.7131V13.7145C66.6299 13.7145 66.1976 13.5746 65.8874 13.2949C65.5772 13.0152 65.4213 12.6552 65.4213 12.2162C65.4213 11.7108 65.6684 11.3605 66.1611 11.168C66.6538 10.9755 67.5339 10.8786 68.8028 10.8786H69.4907V11.3175C69.4907 12.0099 69.2703 12.5818 68.8323 13.0346ZM64.7434 15.0217C65.3034 15.2945 65.9421 15.4316 66.6566 15.4316L66.658 15.4343C67.3458 15.4343 67.9396 15.2779 68.4393 14.9649C68.939 14.652 69.3026 14.2227 69.5328 13.6771V14.1161C69.5328 14.9677 69.9455 15.3942 70.7273 15.3942C71.5092 15.3942 71.9008 14.9677 71.9008 14.1161V9.32353C71.9008 7.93881 71.5499 6.91688 70.848 6.25775C70.1462 5.59862 69.0738 5.26905 67.6294 5.26905C67.1563 5.26905 66.6341 5.32167 66.06 5.42829C65.4873 5.53353 64.8894 5.71355 64.2689 5.96695C63.9587 6.08742 63.7524 6.27436 63.6513 6.52638C63.5502 6.77979 63.5362 7.02904 63.6106 7.27552C63.685 7.522 63.8296 7.70063 64.0457 7.81418C64.2619 7.92773 64.5314 7.91111 64.8557 7.76433C65.3554 7.53862 65.8312 7.37799 66.2832 7.28521C66.7352 7.19244 67.1563 7.14536 67.5479 7.14536C68.2498 7.14536 68.7481 7.29214 69.0457 7.58432C69.3419 7.87649 69.4907 8.35561 69.4907 9.02166V9.44124H68.7818C67.3514 9.44124 66.2116 9.53401 65.361 9.72095C64.5118 9.9065 63.8969 10.2098 63.5193 10.6293C63.1417 11.0489 62.9523 11.618 62.9523 12.3367C62.9523 12.9224 63.1109 13.4473 63.4281 13.9139C63.7453 14.3792 64.1833 14.7489 64.7434 15.0217Z" fill="#6F5A8A"/>
</svg>
