<svg width="22" height="18" viewBox="0 0 22 18" fill="none" xmlns="http://www.w3.org/2000/svg">
<g clip-path="url(#clip0_128_1621)">
<path d="M3.9803 17.7391V16.5592C3.9803 16.1079 3.71656 15.8124 3.26381 15.8124C3.03743 15.8124 2.79127 15.8903 2.62204 16.1469C2.49017 15.9315 2.30116 15.8124 2.01763 15.8124C1.82862 15.8124 1.63961 15.872 1.49015 16.0873V15.8513H1.09454V17.7391H1.49015V16.6967C1.49015 16.3622 1.65939 16.2041 1.92313 16.2041C2.18687 16.2041 2.31874 16.3806 2.31874 16.6967V17.7391H2.71435V16.6967C2.71435 16.3622 2.90336 16.2041 3.14732 16.2041C3.41106 16.2041 3.54293 16.3806 3.54293 16.6967V17.7391H3.9803ZM9.84853 15.8513H9.20676V15.2809H8.81115V15.8513H8.4529V16.2248H8.81115V17.0907C8.81115 17.5237 8.98038 17.778 9.43314 17.778C9.60237 17.778 9.79138 17.7185 9.92325 17.6406L9.80897 17.2855C9.69468 17.3634 9.56281 17.384 9.4683 17.384C9.27929 17.384 9.20456 17.2649 9.20456 17.0701V16.2248H9.84633V15.8513H9.84853ZM13.2068 15.8101C12.9804 15.8101 12.8288 15.9292 12.7343 16.085V15.8491H12.3387V17.7368H12.7343V16.6738C12.7343 16.3599 12.8662 16.1812 13.1123 16.1812C13.187 16.1812 13.2815 16.2019 13.3585 16.2202L13.4728 15.8261C13.3936 15.8101 13.2815 15.8101 13.2068 15.8101ZM8.13202 16.0071C7.943 15.8697 7.67926 15.8101 7.39574 15.8101C6.94299 15.8101 6.64188 16.0461 6.64188 16.4195C6.64188 16.7334 6.86826 16.9121 7.26387 16.9693L7.45289 16.9899C7.65948 17.0289 7.77377 17.0885 7.77377 17.187C7.77377 17.3244 7.62212 17.4229 7.35838 17.4229C7.09464 17.4229 6.88584 17.3244 6.75397 17.2259L6.56496 17.5398C6.77156 17.6978 7.05508 17.7757 7.3386 17.7757C7.86608 17.7757 8.16938 17.5192 8.16938 17.1663C8.16938 16.8319 7.92322 16.6555 7.54739 16.5959L7.35838 16.5753C7.18914 16.5547 7.05727 16.5157 7.05727 16.3989C7.05727 16.2614 7.18914 16.1835 7.39794 16.1835C7.62432 16.1835 7.85069 16.282 7.96498 16.3416L8.13202 16.0071ZM18.6575 15.8101C18.4311 15.8101 18.2794 15.9292 18.1849 16.085V15.8491H17.7893V17.7368H18.1849V16.6738C18.1849 16.3599 18.3168 16.1812 18.5629 16.1812C18.6377 16.1812 18.7322 16.2019 18.8091 16.2202L18.9234 15.8307C18.8465 15.8101 18.7344 15.8101 18.6575 15.8101ZM13.6024 16.7952C13.6024 17.3657 13.9805 17.778 14.5651 17.778C14.8288 17.778 15.0178 17.7185 15.2069 17.5627L15.0178 17.2282C14.8662 17.3473 14.7167 17.4046 14.5453 17.4046C14.2244 17.4046 13.998 17.1686 13.998 16.7952C13.998 16.4218 14.2244 16.2041 14.5453 16.1858C14.7145 16.1858 14.8662 16.2454 15.0178 16.3622L15.2069 16.0277C15.0178 15.8697 14.8288 15.8124 14.5651 15.8124C13.9805 15.8101 13.6024 16.2248 13.6024 16.7952ZM17.2618 16.7952V15.8513H16.8662V16.0873C16.7343 15.9109 16.5453 15.8124 16.2992 15.8124C15.7893 15.8124 15.3937 16.2248 15.3937 16.7952C15.3937 17.3657 15.7893 17.778 16.2992 17.778C16.5629 17.778 16.7519 17.6795 16.8662 17.5031V17.7391H17.2618V16.7952ZM15.8091 16.7952C15.8091 16.4607 16.0157 16.1858 16.3563 16.1858C16.6772 16.1858 16.9036 16.4424 16.9036 16.7952C16.9036 17.1297 16.6772 17.4046 16.3563 17.4046C16.0179 17.384 15.8091 17.1274 15.8091 16.7952ZM11.0749 15.8101C10.5474 15.8101 10.1694 16.2041 10.1694 16.7929C10.1694 17.3817 10.5474 17.7757 11.0947 17.7757C11.3584 17.7757 11.6222 17.6978 11.831 17.5192L11.642 17.2236C11.4903 17.3428 11.3013 17.4206 11.1145 17.4206C10.8683 17.4206 10.6244 17.3015 10.5672 16.9693H11.9057V16.8113C11.9233 16.2041 11.5826 15.8101 11.0749 15.8101ZM11.0749 16.1652C11.3211 16.1652 11.4903 16.3233 11.5277 16.6165H10.5848C10.6222 16.3622 10.7914 16.1652 11.0749 16.1652ZM20.9036 16.7952V15.1045H20.508V16.0873C20.3762 15.9109 20.1871 15.8124 19.941 15.8124C19.4311 15.8124 19.0355 16.2248 19.0355 16.7952C19.0355 17.3657 19.4311 17.778 19.941 17.778C20.2047 17.778 20.3937 17.6795 20.508 17.5031V17.7391H20.9036V16.7952ZM19.4509 16.7952C19.4509 16.4607 19.6575 16.1858 19.9981 16.1858C20.319 16.1858 20.5454 16.4424 20.5454 16.7952C20.5454 17.1297 20.319 17.4046 19.9981 17.4046C19.6575 17.384 19.4509 17.1274 19.4509 16.7952ZM6.20671 16.7952V15.8513H5.8111V16.0873C5.67923 15.9109 5.49022 15.8124 5.24406 15.8124C4.73416 15.8124 4.33855 16.2248 4.33855 16.7952C4.33855 17.3657 4.73416 17.778 5.24406 17.778C5.5078 17.778 5.69681 17.6795 5.8111 17.5031V17.7391H6.20671V16.7952ZM4.73636 16.7952C4.73636 16.4607 4.94296 16.1858 5.28362 16.1858C5.6045 16.1858 5.83088 16.4424 5.83088 16.7952C5.83088 17.1297 5.6045 17.4046 5.28362 17.4046C4.94296 17.384 4.73636 17.1274 4.73636 16.7952Z" fill="#6F5A8A"/>
<path d="M8.39574 7.07904C8.39574 4.81787 9.41553 2.811 10.9804 1.51432C9.82873 0.570447 8.37596 0 6.79132 0C3.03741 0 0 3.16609 0 7.07904C0 10.992 3.03741 14.1581 6.79132 14.1581C8.37596 14.1581 9.82873 13.5876 10.9804 12.6438C9.41333 11.3654 8.39574 9.34021 8.39574 7.07904Z" fill="#6F5A8A"/>
<path d="M21.9609 7.07904C21.9609 10.992 18.9235 14.1581 15.1695 14.1581C13.5849 14.1581 12.1321 13.5876 10.9805 12.6438C12.5651 11.3448 13.5651 9.34021 13.5651 7.07904C13.5651 4.81787 12.5453 2.811 10.9805 1.51432C12.1299 0.570447 13.5827 0 15.1673 0C18.9234 0 21.9609 3.18671 21.9609 7.07904Z" fill="#6F5A8A"/>
</g>
<defs>
<clipPath id="clip0_128_1621">
<rect width="21.9608" height="17.7778" fill="white"/>
</clipPath>
</defs>
</svg>
