<svg width="66" height="18" viewBox="0 0 66 18" fill="none" xmlns="http://www.w3.org/2000/svg">
<g clip-path="url(#clip0_128_1615)">
<path d="M27.7278 17.5218H22.3731L25.7223 0.3125H31.0763L27.7278 17.5218Z" fill="#6F5A8A"/>
<path d="M47.1389 0.732753C46.0827 0.384503 44.4077 0 42.3362 0C37.0483 0 33.3243 2.34327 33.3018 5.69339C33.2582 8.1652 35.9676 9.53788 37.9948 10.3624C40.0664 11.2044 40.771 11.7543 40.771 12.5051C40.7498 13.6581 39.0967 14.1893 37.5553 14.1893C35.4177 14.1893 34.2722 13.9152 32.5311 13.2736L31.8259 12.9984L31.0763 16.8616C32.3322 17.3372 34.6463 17.7591 37.0483 17.7772C42.6667 17.7772 46.3246 15.4702 46.3682 11.8998C46.3894 9.94051 44.9583 8.43985 41.8735 7.21273C40.0009 6.42505 38.8535 5.89443 38.8535 5.08863C38.8753 4.35642 39.8238 3.60609 41.9376 3.60609C43.6787 3.56929 44.9577 3.91699 45.926 4.26524L46.4105 4.44815L47.1389 0.732204V0.732753Z" fill="#6F5A8A"/>
<path d="M54.2558 11.4252C54.6967 10.4365 56.3935 6.61011 56.3935 6.61011C56.371 6.64692 56.8337 5.60326 57.0981 4.96224L57.4722 6.44533C57.4722 6.44533 58.4861 10.5645 58.7063 11.4252H54.2552H54.2558ZM60.8657 0.3125H56.724C55.4469 0.3125 54.4766 0.623398 53.9253 1.74065L45.9717 17.5223H51.5901C51.5901 17.5223 52.5148 15.3982 52.7137 14.9406H59.5887C59.7427 15.5449 60.2278 17.5223 60.2278 17.5223H65.1859L60.8657 0.3125Z" fill="#6F5A8A"/>
<path d="M11.5541 7.43301L10.2103 1.75884C9.9023 0.659712 8.95445 0.348265 7.78649 0.312012H6.10352e-05C0.902969 0.520742 1.77415 0.771218 2.60303 1.06179C6.54383 2.44491 9.64386 4.66624 11.5541 7.43246V7.43301Z" fill="#6F5A8A"/>
<path d="M17.9002 0.3125L12.6559 12.0475L12.0829 9.66746C11.1132 6.92101 8.07265 3.93727 4.67981 2.45363L9.4832 17.5031H15.1459L23.5629 0.3125H17.9009H17.9002Z" fill="#6F5A8A"/>
</g>
<defs>
<clipPath id="clip0_128_1615">
<rect width="65.1852" height="17.7778" fill="white"/>
</clipPath>
</defs>
</svg>
